<?xml version="1.0" encoding="UTF-8" standalone="no"?>
<svg width="101px" height="101px" viewBox="0 0 101 101" version="1.1" xmlns="http://www.w3.org/2000/svg" xmlns:xlink="http://www.w3.org/1999/xlink" xmlns:sketch="http://www.bohemiancoding.com/sketch/ns">
    <!-- Generator: Sketch 3.3.1 (12002) - http://www.bohemiancoding.com/sketch -->
    <title>Sun</title>
    <desc>Created with Sketch.</desc>
    <defs></defs>
    <g id="Page-1" stroke="none" stroke-width="1" fill="none" fill-rule="evenodd" sketch:type="MSPage">
        <g id="weather-icons" sketch:type="MSLayerGroup" transform="translate(-55.000000, -57.000000)" fill="#FFFFFF">
            <g id="work" transform="translate(49.000000, 57.000000)" sketch:type="MSShapeGroup">
                <g id="Sun" transform="translate(6.000000, 0.000000)">
                    <path d="M24.826,50.559 C24.826,64.756 36.335,76.264 50.531,76.264 C64.728,76.264 76.235,64.756 76.235,50.559 C76.235,36.362 64.728,24.854 50.531,24.854 C36.335,24.854 24.826,36.362 24.826,50.559" id="Shape"></path>
                    <path d="M17.763,50.653 L17.763,50.465 C17.763,48.264 15.963,46.465 13.763,46.465 L4.372,46.465 C2.172,46.465 0.372,48.264 0.372,50.465 L0.372,50.653 C0.372,52.853 2.172,54.653 4.372,54.653 L13.763,54.653 C15.963,54.653 17.763,52.853 17.763,50.653" id="Shape"></path>
                    <path d="M96.687,46.465 L87.296,46.465 C85.097,46.465 83.296,48.265 83.296,50.465 L83.296,50.653 C83.296,52.854 85.097,54.653 87.296,54.653 L96.687,54.653 C98.888,54.653 100.687,52.854 100.687,50.653 L100.687,50.465 C100.687,48.265 98.888,46.465 96.687,46.465" id="Shape"></path>
                    <path d="M75.691,7.169 L75.527,7.074 C73.622,5.975 71.164,6.633 70.063,8.538 L65.368,16.671 C64.267,18.576 64.926,21.035 66.832,22.135 L66.996,22.23 C68.9,23.329 71.359,22.671 72.459,20.766 L77.154,12.633 C78.254,10.728 77.595,8.269 75.691,7.169" id="Shape"></path>
                    <path d="M34.228,78.983 L34.065,78.888 C32.16,77.789 29.701,78.447 28.601,80.352 L23.906,88.485 C22.806,90.39 23.464,92.849 25.37,93.949 L25.533,94.044 C27.439,95.143 29.897,94.485 30.998,92.58 L35.693,84.447 C36.792,82.542 36.134,80.083 34.228,78.983" id="Shape"></path>
                    <path d="M72.459,80.352 C71.359,78.447 68.9,77.789 66.996,78.888 L66.832,78.983 C64.927,80.082 64.268,82.541 65.368,84.447 L70.063,92.58 C71.164,94.485 73.622,95.143 75.527,94.043 L75.691,93.949 C77.596,92.849 78.255,90.39 77.154,88.485 L72.459,80.352 L72.459,80.352 Z" id="Shape"></path>
                    <path d="M28.601,20.765 C29.701,22.67 32.16,23.328 34.065,22.229 L34.228,22.134 C36.134,21.035 36.792,18.576 35.693,16.67 L30.997,8.537 C29.897,6.632 27.439,5.974 25.533,7.074 L25.37,7.168 C23.464,8.268 22.806,10.727 23.906,12.632 L28.601,20.765 L28.601,20.765 Z" id="Shape"></path>
                    <path d="M20.736,28.63 L12.603,23.935 C10.699,22.835 8.24,23.493 7.14,25.399 L7.046,25.563 C5.945,27.468 6.604,29.927 8.509,31.026 L16.642,35.722 C18.548,36.821 21.006,36.163 22.106,34.258 L22.201,34.094 C23.3,32.189 22.641,29.73 20.736,28.63" id="Shape"></path>
                    <path d="M92.55,70.092 L84.417,65.397 C82.513,64.297 80.054,64.955 78.954,66.861 L78.86,67.025 C77.759,68.93 78.418,71.389 80.323,72.488 L88.456,77.184 C90.362,78.283 92.82,77.625 93.92,75.72 L94.015,75.556 C95.114,73.651 94.455,71.192 92.55,70.092" id="Shape"></path>
                    <path d="M22.106,66.86 C21.005,64.955 18.547,64.297 16.642,65.396 L8.509,70.091 C6.604,71.191 5.945,73.65 7.045,75.555 L7.14,75.719 C8.24,77.625 10.699,78.283 12.603,77.183 L20.736,72.488 C22.641,71.388 23.3,68.929 22.201,67.024 L22.106,66.86 L22.106,66.86 Z" id="Shape"></path>
                    <path d="M78.955,34.258 C80.055,36.163 82.514,36.821 84.418,35.722 L92.551,31.027 C94.456,29.927 95.115,27.468 94.016,25.563 L93.921,25.399 C92.82,23.493 90.362,22.835 88.457,23.935 L80.324,28.63 C78.419,29.73 77.76,32.189 78.86,34.094 L78.955,34.258 L78.955,34.258 Z" id="Shape"></path>
                    <path d="M50.436,17.792 L50.624,17.792 C52.825,17.792 54.624,15.992 54.624,13.792 L54.624,4.401 C54.624,2.201 52.825,0.401 50.624,0.401 L50.436,0.401 C48.236,0.401 46.436,2.201 46.436,4.401 L46.436,13.792 C46.436,15.992 48.236,17.792 50.436,17.792" id="Shape"></path>
                    <path d="M50.624,83.326 L50.436,83.326 C48.235,83.326 46.436,85.126 46.436,87.326 L46.436,96.717 C46.436,98.917 48.235,100.717 50.436,100.717 L50.624,100.717 C52.824,100.717 54.624,98.917 54.624,96.717 L54.624,87.326 C54.624,85.126 52.824,83.326 50.624,83.326" id="Shape"></path>
                </g>
            </g>
        </g>
    </g>
</svg>