<?xml version="1.0" encoding="UTF-8" standalone="no"?>
<svg width="55px" height="61px" viewBox="0 0 55 61" version="1.1" xmlns="http://www.w3.org/2000/svg" xmlns:xlink="http://www.w3.org/1999/xlink" xmlns:sketch="http://www.bohemiancoding.com/sketch/ns">
    <!-- Generator: Sketch 3.3.1 (12002) - http://www.bohemiancoding.com/sketch -->
    <title>Shape</title>
    <desc>Created with Sketch.</desc>
    <defs></defs>
    <g id="Page-1" stroke="none" stroke-width="1" fill="none" fill-rule="evenodd" sketch:type="MSPage">
        <g id="weather-icons" sketch:type="MSLayerGroup" transform="translate(-310.000000, -71.000000)" fill="#FFFFFF">
            <g id="work" transform="translate(49.000000, 57.000000)" sketch:type="MSShapeGroup">
                <path d="M315.846,62.466 C315.611,62.047 315.143,61.816 314.667,61.876 C313.391,62.047 312.125,62.134 310.908,62.134 C295.415,62.134 282.813,49.532 282.813,34.041 C282.813,27.6 285.051,21.305 289.116,16.315 C289.419,15.942 289.465,15.42 289.229,15.001 C288.995,14.582 288.526,14.351 288.05,14.411 C273.019,16.423 261.682,29.389 261.682,44.571 C261.682,61.357 275.337,75.011 292.12,75.011 C301.314,75.011 309.919,70.917 315.733,63.78 C316.034,63.406 316.08,62.885 315.846,62.466" id="Shape"></path>
            </g>
        </g>
    </g>
</svg>