<?xml version="1.0" encoding="UTF-8" standalone="no"?>
<svg width="114px" height="87px" viewBox="0 0 114 87" version="1.1" xmlns="http://www.w3.org/2000/svg" xmlns:xlink="http://www.w3.org/1999/xlink" xmlns:sketch="http://www.bohemiancoding.com/sketch/ns">
    <!-- Generator: Sketch 3.3.1 (12002) - http://www.bohemiancoding.com/sketch -->
    <title>Group</title>
    <desc>Created with Sketch.</desc>
    <defs></defs>
    <g id="Page-1" stroke="none" stroke-width="1" fill="none" fill-rule="evenodd" sketch:type="MSPage">
        <g id="weather-icons" sketch:type="MSLayerGroup" transform="translate(-504.000000, -507.000000)" fill="#FFFFFF">
            <g id="work" transform="translate(49.000000, 57.000000)" sketch:type="MSShapeGroup">
                <g id="Group" transform="translate(455.000000, 450.000000)">
                    <path d="M90.449,43.885 C90.449,32.422 81.158,23.133 69.697,23.133 C67.875,23.133 66.107,23.369 64.424,23.811 C61.269,14.864 52.746,8.451 42.72,8.451 C30.437,8.451 20.404,18.076 19.744,30.194 C18.994,30.096 18.232,30.026 17.453,30.026 C7.894,30.026 0.148,37.774 0.148,47.332 C0.148,56.889 7.894,64.637 17.453,64.637 L69.697,64.637 C81.158,64.637 90.449,55.348 90.449,43.885" id="Shape"></path>
                    <path d="M109.824,40.262 L102.834,40.262 C100.635,40.262 98.834,41.85 98.834,43.789 C98.834,45.731 100.635,47.319 102.834,47.319 L109.824,47.319 C112.023,47.319 113.824,45.731 113.824,43.789 C113.824,41.85 112.023,40.262 109.824,40.262" id="Shape"></path>
                    <path d="M92.207,6.352 C90.527,5.381 88.252,6.145 87.152,8.051 L83.658,14.104 C82.557,16.008 83.033,18.362 84.713,19.332 C86.395,20.303 88.67,19.538 89.769,17.633 L93.264,11.581 C94.363,9.674 93.889,7.323 92.207,6.352" id="Shape"></path>
                    <path d="M89.769,69.95 C88.669,68.044 86.394,67.28 84.712,68.251 C83.034,69.22 82.557,71.573 83.659,73.477 L87.153,79.532 C88.251,81.436 90.528,82.202 92.207,81.231 C93.889,80.261 94.364,77.907 93.264,76.003 L89.769,69.95 L89.769,69.95 Z" id="Shape"></path>
                    <path d="M106.332,60.348 L100.279,56.856 C98.375,55.754 96.021,56.231 95.051,57.91 C94.08,59.592 94.846,61.868 96.75,62.967 L102.803,66.463 C104.709,67.563 107.061,67.088 108.031,65.407 C109.002,63.723 108.236,61.448 106.332,60.348" id="Shape"></path>
                    <path d="M100.279,30.727 L106.332,27.231 C108.238,26.131 109.002,23.856 108.031,22.174 C107.06,20.493 104.709,20.018 102.802,21.118 L96.75,24.614 C94.845,25.713 94.08,27.989 95.05,29.67 C96.021,31.352 98.375,31.827 100.279,30.727" id="Shape"></path>
                    <path d="M70.594,15.547 C72.533,15.547 74.121,13.748 74.121,11.547 L74.121,4.559 C74.121,2.359 72.533,0.559 70.594,0.559 C68.653,0.559 67.065,2.359 67.065,4.559 L67.065,11.547 C67.065,13.748 68.653,15.547 70.594,15.547" id="Shape"></path>
                    <path d="M70.594,72.034 C68.653,72.034 67.065,73.835 67.065,76.034 L67.065,83.022 C67.065,85.223 68.653,87.022 70.594,87.022 C72.533,87.022 74.121,85.223 74.121,83.022 L74.121,76.034 C74.121,73.835 72.533,72.034 70.594,72.034" id="Shape"></path>
                </g>
            </g>
        </g>
    </g>
</svg>
