<?xml version="1.0" encoding="UTF-8" standalone="no"?>
<svg width="92px" height="93px" viewBox="0 0 92 93" version="1.1" xmlns="http://www.w3.org/2000/svg" xmlns:xlink="http://www.w3.org/1999/xlink" xmlns:sketch="http://www.bohemiancoding.com/sketch/ns">
    <!-- Generator: Sketch 3.3.1 (12002) - http://www.bohemiancoding.com/sketch -->
    <title>Shape + Shape + Shape</title>
    <desc>Created with Sketch.</desc>
    <defs></defs>
    <g id="Page-1" stroke="none" stroke-width="1" fill="none" fill-rule="evenodd" sketch:type="MSPage">
        <g id="weather-icons" sketch:type="MSLayerGroup" transform="translate(-743.000000, -278.000000)" fill="#FFFFFF">
            <g id="work" transform="translate(49.000000, 57.000000)" sketch:type="MSShapeGroup">
                <g id="Shape-+-Shape-+-Shape" transform="translate(694.000000, 221.000000)">
                    <path d="M70.46,15.052 C68.638,15.052 66.872,15.289 65.187,15.73 C62.032,6.783 53.509,0.371 43.483,0.371 C31.2,0.371 21.167,9.995 20.509,22.114 C19.757,22.015 18.995,21.945 18.216,21.945 C8.659,21.945 0.911,29.693 0.911,39.251 C0.911,48.809 8.659,56.556 18.216,56.556 L70.46,56.556 C81.921,56.556 91.212,47.268 91.212,35.804 C91.212,24.341 81.921,15.052 70.46,15.052" id="Shape"></path>
                    <path d="M70.685,64.951 C70.685,64.951 57.576,71.412 55.431,72.76 C53.281,74.111 52.466,74.736 51.408,76.293 C48.089,81.172 49.357,87.819 54.238,91.136 C59.119,94.455 65.765,93.186 69.081,88.307 C70.164,86.718 70.343,85.841 70.896,83.151 C71.445,80.463 72.365,66.084 72.365,66.084 C72.464,64.939 71.706,64.43 70.685,64.951" id="Shape"></path>
                    <path d="M39.187,79.475 L32.228,76.75 L37.656,71.61 C38.13,71.162 38.149,70.407 37.701,69.936 L35.509,67.621 C35.062,67.149 34.308,67.129 33.835,67.577 L28.902,72.248 L27.601,65.577 C27.476,64.936 26.851,64.514 26.21,64.639 L23.082,65.25 C22.442,65.375 22.02,66 22.144,66.639 L23.445,73.311 L17.116,70.834 C16.509,70.596 15.817,70.899 15.58,71.504 L14.417,74.473 C14.178,75.079 14.481,75.77 15.089,76.008 L22.049,78.733 L16.623,83.872 C16.148,84.322 16.128,85.076 16.577,85.548 L18.769,87.865 C19.216,88.337 19.97,88.357 20.445,87.91 L25.378,83.236 L26.678,89.908 C26.803,90.548 27.431,90.968 28.07,90.843 L31.198,90.234 C31.837,90.109 32.259,89.484 32.134,88.845 L30.835,82.173 L37.162,84.652 C37.769,84.888 38.46,84.587 38.697,83.98 L39.861,81.01 C40.096,80.403 39.793,79.711 39.187,79.475" id="Shape"></path>
                </g>
            </g>
        </g>
    </g>
</svg>
