<?xml version="1.0" encoding="UTF-8" standalone="no"?>
<svg width="91px" height="91px" viewBox="0 0 91 91" version="1.1" xmlns="http://www.w3.org/2000/svg" xmlns:xlink="http://www.w3.org/1999/xlink" xmlns:sketch="http://www.bohemiancoding.com/sketch/ns">
    <!-- Generator: Sketch 3.3.1 (12002) - http://www.bohemiancoding.com/sketch -->
    <title>Shape + Shape</title>
    <desc>Created with Sketch.</desc>
    <defs></defs>
    <g id="Page-1" stroke="none" stroke-width="1" fill="none" fill-rule="evenodd" sketch:type="MSPage">
        <g id="weather-icons" sketch:type="MSLayerGroup" transform="translate(-972.000000, -71.000000)" fill="#FFFFFF">
            <g id="work" transform="translate(49.000000, 57.000000)" sketch:type="MSShapeGroup">
                <g id="Shape-+-Shape" transform="translate(923.000000, 14.000000)">
                    <path d="M69.55,15.082 C67.73,15.082 65.96,15.319 64.28,15.76 C61.12,6.813 52.6,0.401 42.57,0.401 C30.29,0.401 20.26,10.025 19.6,22.144 C18.85,22.045 18.08,21.975 17.31,21.975 C7.75,21.975 0,29.723 0,39.281 C0,48.839 7.75,56.586 17.31,56.586 L69.55,56.586 C81.01,56.586 90.3,47.298 90.3,35.834 C90.3,24.371 81.01,15.082 69.55,15.082" id="Shape"></path>
                    <path d="M56.63,79.308 L49.67,76.583 L55.1,71.445 C55.58,70.995 55.6,70.242 55.15,69.769 L52.96,67.456 C52.51,66.984 51.75,66.962 51.28,67.41 L46.35,72.083 L45.05,65.41 C44.92,64.771 44.3,64.349 43.66,64.474 L40.53,65.083 C39.89,65.208 39.47,65.833 39.59,66.474 L40.89,73.146 L34.56,70.667 C33.96,70.429 33.26,70.732 33.03,71.337 L31.86,74.306 C31.63,74.912 31.93,75.603 32.54,75.841 L39.5,78.566 L34.07,83.704 C33.59,84.154 33.57,84.908 34.02,85.382 L36.22,87.697 C36.66,88.169 37.42,88.191 37.89,87.742 L42.82,83.068 L44.13,89.74 C44.25,90.38 44.88,90.8 45.52,90.675 L48.65,90.068 C49.28,89.941 49.71,89.318 49.58,88.677 L48.28,82.007 L54.61,84.484 C55.22,84.722 55.91,84.419 56.14,83.812 L57.31,80.845 C57.54,80.236 57.24,79.544 56.63,79.308" id="Shape"></path>
                </g>
            </g>
        </g>
    </g>
</svg>
