<?xml version="1.0" encoding="UTF-8" standalone="no"?>
<svg width="91px" height="110px" viewBox="0 0 91 110" version="1.1" xmlns="http://www.w3.org/2000/svg" xmlns:xlink="http://www.w3.org/1999/xlink" xmlns:sketch="http://www.bohemiancoding.com/sketch/ns">
    <!-- Generator: Sketch 3.3.1 (12002) - http://www.bohemiancoding.com/sketch -->
    <title>Shape + Shape + Shape</title>
    <desc>Created with Sketch.</desc>
    <defs></defs>
    <g id="Page-1" stroke="none" stroke-width="1" fill="none" fill-rule="evenodd" sketch:type="MSPage">
        <g id="weather-icons" sketch:type="MSLayerGroup" transform="translate(-971.000000, -278.000000)" fill="#FFFFFF">
            <g id="work" transform="translate(49.000000, 57.000000)" sketch:type="MSShapeGroup">
                <g id="Shape-+-Shape-+-Shape" transform="translate(922.000000, 221.000000)">
                    <path d="M69.77,15.052 C67.95,15.052 66.18,15.289 64.5,15.73 C61.34,6.783 52.82,0.371 42.79,0.371 C30.51,0.371 20.47,9.995 19.82,22.114 C19.06,22.015 18.3,21.945 17.53,21.945 C7.97,21.945 0.22,29.693 0.22,39.251 C0.22,48.809 7.97,56.556 17.53,56.556 L69.77,56.556 C81.23,56.556 90.52,47.268 90.52,35.804 C90.52,24.341 81.23,15.052 69.77,15.052" id="Shape"></path>
                    <path d="M37.75,64.796 C37.75,64.796 24.64,71.257 22.49,72.605 C20.34,73.957 19.53,74.581 18.47,76.139 C15.15,81.018 16.42,87.665 21.3,90.982 C26.18,94.299 32.83,93.032 36.14,88.153 C37.23,86.563 37.41,85.686 37.96,82.996 C38.51,80.308 39.43,65.929 39.43,65.929 C39.53,64.784 38.77,64.275 37.75,64.796" id="Shape"></path>
                    <path d="M77.02,81.362 L64.19,81.699 L72.51,66.021 C72.65,65.768 72.62,65.478 72.43,65.246 C72.25,65.015 71.94,64.873 71.6,64.868 L57.53,64.671 C57.12,64.7 56.7,64.89 56.56,65.23 L45.87,90.899 C45.76,91.152 45.81,91.43 46,91.648 C46.19,91.863 46.5,91.99 46.82,91.99 L46.83,91.99 L59.54,91.916 L54.31,108.48 C54.19,108.869 54.43,109.275 54.88,109.439 C55.01,109.488 55.15,109.511 55.29,109.511 C55.62,109.511 55.94,109.381 56.13,109.146 L77.89,82.646 C78.11,82.389 78.12,82.057 77.94,81.787 C77.75,81.515 77.39,81.337 77.02,81.362" id="Shape"></path>
                </g>
            </g>
        </g>
    </g>
</svg>